<svg aria-labelledby="simpleicons-aparat-icon" role="img" viewBox="0 0 24 24" xmlns="http://www.w3.org/2000/svg"><title id="simpleicons-aparat-icon">Aparat icon</title><path d="M14.6 1.8C8.9.3 3.2 3.8 1.8 9.4c-1.4 5.7 2 11.4 7.7 12.8s11.4-2 12.8-7.7C23.7 9 20.2 3.3 14.6 1.8zM9.9 4.2c1.6.4 2.6 2 2.2 3.7-.4 1.6-2 2.6-3.7 2.2C6.8 9.6 5.8 8 6.2 6.3c.4-1.6 2.1-2.6 3.7-2.1zM6.4 18c-1.6-.4-2.6-2-2.2-3.7.4-1.6 2-2.6 3.7-2.2 1.6.4 2.6 2 2.2 3.7-.4 1.6-2.1 2.6-3.7 2.2zm4.2-6.3c.2-.8 1-1.2 1.7-1 .8.2 1.2 1 1 1.7s-1 1.2-1.7 1c-.7-.1-1.2-1-1-1.7zm3.2 8.1c-1.6-.4-2.6-2-2.2-3.7s2-2.6 3.7-2.2c1.6.4 2.6 2 2.2 3.7-.4 1.7-2 2.6-3.7 2.2zm2-8c-1.6-.4-2.6-2-2.2-3.7.4-1.6 2-2.6 3.7-2.2 1.6.4 2.6 2 2.2 3.7-.4 1.7-2 2.7-3.7 2.2z"/><path d="M10.4.7L8.1.1C6-.4 3.8.9 3.3 3l-.6 2.3C4.6 2.8 7.4 1.1 10.4.7zm12.9 9.7l.6-2.3c.5-2.1-.8-4.3-2.9-4.8l-2.3-.6c2.5 1.9 4.2 4.7 4.6 7.7zM.7 13.5l-.6 2.3c-.5 2.1.8 4.3 2.9 4.8l2.3.6c-2.5-1.8-4.2-4.6-4.6-7.7zm12.8 9.8l2.3.6c2.1.5 4.3-.8 4.8-2.9l.6-2.3c-1.8 2.5-4.6 4.2-7.7 4.6z"/></svg>
