<svg xmlns="http://www.w3.org/2000/svg" viewBox="-599 1169 24 24"><path d="M-584.4 1170.7c-5.7-1.4-11.4 2-12.8 7.7-1.4 5.7 2 11.4 7.7 12.8 5.7 1.4 11.4-2 12.8-7.7 1.4-5.6-2.1-11.3-7.7-12.8zm-4.7 2.4c1.6.4 2.6 2 2.2 3.7-.4 1.6-2 2.6-3.7 2.2-1.6-.4-2.6-2-2.2-3.7.4-1.7 2.1-2.7 3.7-2.2zm-3.5 13.8c-1.6-.4-2.6-2-2.2-3.7.4-1.6 2-2.6 3.7-2.2 1.6.4 2.6 2 2.2 3.7-.4 1.6-2.1 2.6-3.7 2.2zm4.2-6.3c.2-.8 1-1.2 1.7-1 .8.2 1.2 1 1 1.7s-1 1.2-1.7 1c-.7-.1-1.2-.9-1-1.7zm3.2 8.1c-1.6-.4-2.6-2-2.2-3.7s2-2.6 3.7-2.2c1.6.4 2.6 2 2.2 3.7-.4 1.7-2 2.6-3.7 2.2zm2-7.9c-1.6-.4-2.6-2-2.2-3.7.4-1.6 2-2.6 3.7-2.2 1.6.4 2.6 2 2.2 3.7-.4 1.6-2 2.6-3.7 2.2z"/><path d="M-588.6 1169.7l-2.3-.6c-2.1-.5-4.3.8-4.8 2.9l-.6 2.3c1.9-2.5 4.7-4.2 7.7-4.6zM-575.7 1179.4l.6-2.3c.5-2.1-.8-4.3-2.9-4.8l-2.3-.6c2.5 1.9 4.2 4.7 4.6 7.7zM-598.3 1182.5l-.6 2.3c-.5 2.1.8 4.3 2.9 4.8l2.3.6c-2.5-1.8-4.2-4.6-4.6-7.7zM-585.5 1192.3l2.3.6c2.1.5 4.3-.8 4.8-2.9l.6-2.3c-1.8 2.5-4.6 4.2-7.7 4.6z"/></svg>
